<svg xmlns:dc="http://purl.org/dc/elements/1.1/" xmlns:cc="http://creativecommons.org/ns#" xmlns:rdf="http://www.w3.org/1999/02/22-rdf-syntax-ns#" xmlns:svg="http://www.w3.org/2000/svg" xmlns="http://www.w3.org/2000/svg" xmlns:sodipodi="http://sodipodi.sourceforge.net/DTD/sodipodi-0.dtd" xmlns:inkscape="http://www.inkscape.org/namespaces/inkscape" version="1.1" x="0px" y="0px" viewBox="0 0 100 125"><g transform="translate(0,-952.36218)"><path style="text-indent:0;text-transform:none;direction:ltr;block-progression:tb;baseline-shift:baseline;color:#000000;enable-background:accumulate;" d="m 17,972.36218 c -4.996,0 -8.9999995,4.2165 -8.9999995,9.2188 l 0,41.53122 c 0,5.0023 4.0039995,9.25 8.9999995,9.25 l 66,0 c 4.995999,0 9,-4.2477 9,-9.25 l 0,-41.53122 c 0,-5.0023 -4.004001,-9.2188 -9,-9.2188 l -66,0 z m 0.4375,6 65.1563,0 -30.8126,29.25002 c -1.1213,1.0647 -2.3756,1.0658 -3.5,0 L 17.4375,978.36218 z m -3.4375,5 20.4375,19.37502 -20.4375,20.375 0,-39.75002 z m 72,0 0,39.75002 L 65.625,1002.706 86,983.36218 z m -24.6875,23.46882 19.468699,19.5312 -61.531199,0 19.5312,-19.5 5.375,5.0938 c 3.2582,3.0882 8.492501,3.0931 11.75,0 l 5.4063,-5.125 z" fill="white" fill-opacity="1" stroke="none" marker="none" visibility="visible" display="inline" overflow="visible"/></g></svg>